<svg xmlns="http://www.w3.org/2000/svg" width="32.808" height="32" viewBox="0 0 32.808 32"><path d="M16.411,0a16.406,16.406,0,0,0-5.184,31.971c.82.15,1.079-.336,1.079-.771,0-.39.008-1.479,0-2.848C7.743,29.344,6.8,26.191,6.8,26.191a4.344,4.344,0,0,0-1.82-2.4c-1.489-1.017.112-1,.112-1A3.449,3.449,0,0,1,7.6,24.485a3.494,3.494,0,0,0,4.773,1.363,3.51,3.51,0,0,1,1.043-2.194c-3.643-.414-7.472-1.821-7.472-8.108a6.339,6.339,0,0,1,1.688-4.4A5.889,5.889,0,0,1,7.8,6.8s1.377-.441,4.51,1.683a15.563,15.563,0,0,1,8.214,0C23.653,6.363,25.028,6.8,25.028,6.8a5.9,5.9,0,0,1,.163,4.342,6.337,6.337,0,0,1,1.686,4.4c0,6.3-3.835,7.689-7.49,8.094a3.88,3.88,0,0,1,1.123,3.022V31.2c0,.439.265.924,1.1.765A16.407,16.407,0,0,0,16.411,0Z" transform="translate(-0.008)" fill="#7e7f86" fill-rule="evenodd"/></svg>