<svg xmlns="http://www.w3.org/2000/svg" width="32" height="31.999" viewBox="0 0 32 31.999"><path d="M24.258,28.292A59.457,59.457,0,0,0,21.6,18.535a19.8,19.8,0,0,1,8.515.6,13.664,13.664,0,0,1-5.855,9.16Zm-7.635,2.334a13.607,13.607,0,0,1-8.7-3.132c.181.146.308.238.308.238s2.618-5.711,10.721-8.532c.028-.014.06-.018.091-.03a57.006,57.006,0,0,1,2.921,10.372,13.653,13.653,0,0,1-5.333,1.084h0ZM2.961,16.962c0-.146.007-.288.011-.432A50.016,50.016,0,0,0,17,14.584c.391.764.764,1.546,1.109,2.323q-.272.073-.539.164A21.613,21.613,0,0,0,6.455,26.084l.005.007a13.609,13.609,0,0,1-3.5-9.13ZM10.793,4.608a81.485,81.485,0,0,1,5.075,7.871A50.514,50.514,0,0,1,3.254,14.146a13.666,13.666,0,0,1,7.537-9.538ZM13.351,3.7l0,.005-.043.007.044-.011ZM25.644,6.711c-.036.053-1.98,3.013-7.139,4.945a69.383,69.383,0,0,0-5.1-7.971A13.606,13.606,0,0,1,25.648,6.711Zm4.634,10.114a31.61,31.61,0,0,0-9.514-.448l-.3-.7q-.427-1-.908-1.984c5.393-2.2,7.585-5.368,7.61-5.4a13.609,13.609,0,0,1,3.107,8.538Zm2.016-3.082A16,16,0,0,0,.625,16.96a15.838,15.838,0,0,0,1.259,6.227A16.03,16.03,0,0,0,10.395,31.7a15.557,15.557,0,0,0,3,.931,16,16,0,0,0,18.9-18.89h0Z" transform="translate(-0.625 -0.964)" fill="#7e7f86"/></svg>