<svg width="32" height="33" viewBox="0 0 32 33" fill="none" xmlns="http://www.w3.org/2000/svg">
<path d="M7.22588 10.6367H0.539307V31.9598H7.22588V10.6367Z" fill="#7E7F86"/>
<path d="M25.3135 10.1745C25.067 10.1437 24.8051 10.1283 24.5431 10.1129C20.7993 9.95879 18.6886 12.1774 17.949 13.1326C17.7487 13.3945 17.6563 13.5486 17.6563 13.5486V10.6983H11.2625V32.0214H17.6563H17.949C17.949 29.849 17.949 27.6921 17.949 25.5197C17.949 24.3488 17.949 23.1779 17.949 22.0069C17.949 20.5587 17.8412 19.018 18.5653 17.693C19.1816 16.5837 20.2909 16.0291 21.5388 16.0291C25.2365 16.0291 25.3135 19.3724 25.3135 19.6805C25.3135 19.6959 25.3135 19.7113 25.3135 19.7113V32.1138H32.0001V18.2015C32.0001 13.4407 29.5812 10.6367 25.3135 10.1745Z" fill="#7E7F86"/>
<path d="M3.88252 7.87882C6.02678 7.87882 7.76506 6.14056 7.76506 3.9963C7.76506 1.85204 6.02678 0.11377 3.88252 0.11377C1.73826 0.11377 0 1.85204 0 3.9963C0 6.14056 1.73826 7.87882 3.88252 7.87882Z" fill="#7E7F86"/>
</svg>
