<svg width="38" height="32" viewBox="0 0 38 32" fill="none" xmlns="http://www.w3.org/2000/svg">
<path d="M11.84 2.376C11.84 1.096 10.784 0.039999 9.504 0.039999C8.224 0.039999 7.168 1.096 7.168 2.376C7.168 3.656 8.224 4.712 9.504 4.712C10.784 4.712 11.84 3.656 11.84 2.376ZM11.52 9.384H9.952C9.376 9.832 8.512 10.408 7.552 10.92C6.752 11.336 5.888 11.752 5.12 12.04V13.448L6.08 13.576C6.56 13.64 7.456 13.992 7.456 15.88V26.664C7.456 28.648 7.072 29.096 6.272 29.096C4.896 29.096 4.832 26.696 2.848 26.696C1.888 26.696 0.992 27.304 0.992 28.456C0.992 30.056 2.88 31.208 5.632 31.208C8.896 31.208 11.52 29.768 11.52 23.496V9.384ZM37.331 17.832C37.331 14.76 35.475 12.936 32.467 11.688V11.592C34.163 10.856 36.659 9.224 36.659 5.96C36.659 2.696 34.195 0.039999 28.787 0.039999H15.315V1.544C16.755 1.736 18.451 2.312 18.451 4.808V20.584C18.451 22.632 16.467 23.24 15.155 23.464V25H29.971C35.027 25 37.331 21.32 37.331 17.832ZM32.211 5.96C32.211 8.584 30.227 10.6 28.211 10.6H22.771V4.36C22.771 2.856 23.443 1.992 26.387 1.992C30.259 1.992 32.211 3.304 32.211 5.96ZM32.755 17.768C32.755 21.32 30.227 23.016 26.579 23.016C23.347 23.016 22.771 22.248 22.771 20.808V12.616H27.891C30.803 12.616 32.755 14.888 32.755 17.768Z" fill="#282A36"/>
</svg>
