<svg width="38" height="33" fill="none" xmlns="http://www.w3.org/2000/svg"><path d="M11.84 3.21A2.35 2.35 0 0 0 9.504.874 2.35 2.35 0 0 0 7.168 3.21a2.35 2.35 0 0 0 2.336 2.336A2.35 2.35 0 0 0 11.84 3.21zm-.32 7.008H9.952a17.55 17.55 0 0 1-2.4 1.536c-.8.416-1.664.832-2.432 1.12v1.408l.96.128c.48.064 1.376.416 1.376 2.304v10.784c0 1.984-.384 2.432-1.184 2.432-1.376 0-1.44-2.4-3.424-2.4-.96 0-1.856.608-1.856 1.76 0 1.6 1.888 2.752 4.64 2.752 3.264 0 5.888-1.44 5.888-7.712V10.218zM37.33 18.666c0-3.072-1.855-4.896-4.863-6.144v-.096c1.696-.736 4.192-2.368 4.192-5.632S34.195.874 28.787.874H15.315v1.504c1.44.192 3.136.768 3.136 3.264v15.776c0 2.048-1.984 2.656-3.296 2.88v1.536H29.97c5.056 0 7.36-3.68 7.36-7.168zM32.21 6.794c0 2.624-1.983 4.64-4 4.64h-5.44v-6.24c0-1.504.673-2.368 3.617-2.368 3.872 0 5.824 1.312 5.824 3.968zm.545 11.808c0 3.552-2.528 5.248-6.176 5.248-3.232 0-3.808-.768-3.808-2.208V13.45h5.12c2.912 0 4.864 2.272 4.864 5.152z" fill="#000"/></svg>