<svg xmlns="http://www.w3.org/2000/svg" width="32" height="30.579" viewBox="0 0 32 30.579"><path d="M32,28.342v11.83H25.14V29.138c0-2.775-.99-4.665-3.475-4.665a3.75,3.75,0,0,0-3.519,2.507,4.746,4.746,0,0,0-.231,1.674V40.179h-6.86s.089-18.7,0-20.631h6.86v2.924l-.045.067h.045v-.067A6.809,6.809,0,0,1,24.1,19.064c4.516-.007,7.9,2.946,7.9,9.278ZM3.884,9.6a3.574,3.574,0,1,0-.089,7.128h.045A3.575,3.575,0,1,0,3.884,9.6ZM.409,40.179h6.86V19.54H.409V40.179Z" transform="translate(0 -9.6)" fill="#eaeaeb"/></svg>