<svg xmlns="http://www.w3.org/2000/svg" width="30" height="29.999" viewBox="0 0 30 29.999"><path d="M22.781,26.584a55.741,55.741,0,0,0-2.493-9.147A18.565,18.565,0,0,1,28.27,18a12.81,12.81,0,0,1-5.489,8.587Zm-7.158,2.188a12.757,12.757,0,0,1-8.161-2.936c.17.137.288.223.288.223s2.455-5.354,10.051-8c.027-.013.057-.017.085-.028a53.443,53.443,0,0,1,2.738,9.724,12.8,12.8,0,0,1-5,1.017h0ZM2.815,15.962c0-.137.007-.27.01-.4a46.89,46.89,0,0,0,13.149-1.825c.367.717.717,1.45,1.04,2.178q-.255.069-.5.153A20.262,20.262,0,0,0,6.091,24.514l0,.007a12.759,12.759,0,0,1-3.283-8.559ZM10.157,4.38a76.392,76.392,0,0,1,4.758,7.379A47.357,47.357,0,0,1,3.09,13.322,12.812,12.812,0,0,1,10.156,4.38Zm2.4-.855,0,0-.04.007.042-.01ZM24.081,6.352c-.033.05-1.856,2.825-6.693,4.636a65.046,65.046,0,0,0-4.783-7.472A12.755,12.755,0,0,1,24.084,6.352Zm4.345,9.482a29.635,29.635,0,0,0-8.919-.42l-.277-.658q-.4-.94-.852-1.86A16.508,16.508,0,0,0,25.512,7.83a12.759,12.759,0,0,1,2.913,8Zm1.89-2.89A15,15,0,0,0,.625,15.96,14.848,14.848,0,0,0,1.8,21.8a15.028,15.028,0,0,0,7.979,7.981,14.585,14.585,0,0,0,2.816.873,15,15,0,0,0,17.715-17.71h0Z" transform="translate(-0.625 -0.964)" fill="#fff"/></svg>