<svg xmlns="http://www.w3.org/2000/svg" width="32.679" height="32" viewBox="0 0 32.679 32"><path d="M16.347,0a16.415,16.415,0,0,0-5.164,31.971c.817.15,1.075-.336,1.075-.771,0-.39.008-1.479,0-2.848-4.545.992-5.486-2.161-5.486-2.161a4.339,4.339,0,0,0-1.813-2.4c-1.483-1.017.111-1,.111-1a3.437,3.437,0,0,1,2.5,1.691,3.473,3.473,0,0,0,4.754,1.363,3.515,3.515,0,0,1,1.039-2.194c-3.628-.414-7.443-1.821-7.443-8.108a6.353,6.353,0,0,1,1.681-4.4A5.91,5.91,0,0,1,7.765,6.8s1.372-.441,4.493,1.683a15.444,15.444,0,0,1,8.182,0C23.56,6.363,24.93,6.8,24.93,6.8a5.921,5.921,0,0,1,.162,4.342,6.351,6.351,0,0,1,1.679,4.4c0,6.3-3.82,7.689-7.461,8.094a3.888,3.888,0,0,1,1.119,3.022V31.2c0,.439.264.924,1.093.765A16.416,16.416,0,0,0,16.347,0Z" transform="translate(-0.008)" fill="#fff" fill-rule="evenodd"/></svg>