<svg width="38" height="33" viewBox="0 0 38 33" fill="none" xmlns="http://www.w3.org/2000/svg">
<path d="M11.8399 3.20974C11.8399 1.92974 10.7839 0.873741 9.50394 0.873741C8.22394 0.873741 7.16794 1.92974 7.16794 3.20974C7.16794 4.48974 8.22394 5.54574 9.50394 5.54574C10.7839 5.54574 11.8399 4.48974 11.8399 3.20974ZM11.5199 10.2177H9.95194C9.37594 10.6657 8.51194 11.2417 7.55194 11.7537C6.75194 12.1697 5.88794 12.5857 5.11994 12.8737V14.2817L6.07994 14.4097C6.55994 14.4737 7.45594 14.8257 7.45594 16.7137V27.4977C7.45594 29.4817 7.07194 29.9297 6.27194 29.9297C4.89594 29.9297 4.83194 27.5297 2.84794 27.5297C1.88794 27.5297 0.991943 28.1377 0.991943 29.2897C0.991943 30.8897 2.87994 32.0417 5.63194 32.0417C8.89594 32.0417 11.5199 30.6017 11.5199 24.3297V10.2177Z" fill="#282A36"/>
<path d="M37.3309 18.6657C37.3309 15.5937 35.4749 13.7697 32.4669 12.5217V12.4257C34.1629 11.6897 36.6589 10.0577 36.6589 6.79374C36.6589 3.52974 34.1949 0.873741 28.7869 0.873741H15.3149V2.37774C16.7549 2.56974 18.4509 3.14574 18.4509 5.64174V21.4177C18.4509 23.4657 16.4669 24.0737 15.1549 24.2977V25.8337H29.9709C35.0269 25.8337 37.3309 22.1537 37.3309 18.6657ZM32.2109 6.79374C32.2109 9.41774 30.2269 11.4337 28.2109 11.4337H22.7709V5.19374C22.7709 3.68974 23.4429 2.82574 26.3869 2.82574C30.2589 2.82574 32.2109 4.13774 32.2109 6.79374ZM32.7549 18.6017C32.7549 22.1537 30.2269 23.8497 26.5789 23.8497C23.3469 23.8497 22.7709 23.0817 22.7709 21.6417V13.4497H27.8909C30.8029 13.4497 32.7549 15.7217 32.7549 18.6017Z" fill="#282A36"/>
</svg>
