<svg width="39" height="33" viewBox="0 0 39 33" fill="none" xmlns="http://www.w3.org/2000/svg">
<path d="M12.1295 3.2721C12.1295 1.95793 11.0453 0.873741 9.73116 0.873741C8.41699 0.873741 7.33281 1.95793 7.33281 3.2721C7.33281 4.58627 8.41699 5.67046 9.73116 5.67046C11.0453 5.67046 12.1295 4.58627 12.1295 3.2721ZM11.801 10.4672H10.1911C9.59975 10.9271 8.71268 11.5185 7.72706 12.0442C6.9057 12.4713 6.01864 12.8984 5.23014 13.1941V14.6397L6.21576 14.7711C6.70858 14.8368 7.62849 15.1982 7.62849 17.1366V28.2084C7.62849 30.2454 7.23424 30.7054 6.41289 30.7054C5.00016 30.7054 4.93445 28.2413 2.89749 28.2413C1.91186 28.2413 0.991943 28.8655 0.991943 30.0483C0.991943 31.691 2.93034 32.8737 5.7558 32.8737C9.10693 32.8737 11.801 31.3953 11.801 24.9559V10.4672Z" fill="white"/>
<path d="M38.301 19.1407C38.301 15.9867 36.3954 14.114 33.3071 12.8327V12.7341C35.0484 11.9785 37.611 10.3029 37.611 6.95177C37.611 3.60064 35.0813 0.873741 29.5289 0.873741H15.6973V2.41789C17.1757 2.61501 18.917 3.20639 18.917 5.76902V21.9661C18.917 24.0688 16.88 24.693 15.533 24.923V26.5H30.7445C35.9355 26.5 38.301 22.7218 38.301 19.1407ZM33.0443 6.95177C33.0443 9.64582 31.0073 11.7156 28.9375 11.7156H23.3523V5.30906C23.3523 3.76491 24.0422 2.87785 27.0648 2.87785C31.0402 2.87785 33.0443 4.22487 33.0443 6.95177ZM33.6028 19.075C33.6028 22.7218 31.0073 24.4631 27.262 24.4631C23.9437 24.4631 23.3523 23.6746 23.3523 22.1961V13.7854H28.609C31.5987 13.7854 33.6028 16.1181 33.6028 19.075Z" fill="white"/>
</svg>
