<svg width="32" height="33" viewBox="0 0 32 33" fill="none" xmlns="http://www.w3.org/2000/svg">
<path d="M7.22588 11.5193H0.539307V32.8424H7.22588V11.5193Z" fill="white"/>
<path d="M25.3135 11.0571C25.067 11.0262 24.8051 11.0108 24.5431 10.9954C20.7993 10.8414 18.6886 13.0599 17.949 14.0152C17.7487 14.2771 17.6563 14.4312 17.6563 14.4312V11.5809H11.2625V32.904H17.6563H17.949C17.949 30.7316 17.949 28.5746 17.949 26.4023C17.949 25.2314 17.949 24.0604 17.949 22.8895C17.949 21.4413 17.8412 19.9006 18.5653 18.5756C19.1816 17.4663 20.2909 16.9117 21.5388 16.9117C25.2365 16.9117 25.3135 20.2549 25.3135 20.5631C25.3135 20.5785 25.3135 20.5939 25.3135 20.5939V32.9964H32.0001V19.084C32.0001 14.3233 29.5812 11.5193 25.3135 11.0571Z" fill="white"/>
<path d="M3.88252 8.76139C6.02678 8.76139 7.76506 7.02312 7.76506 4.87886C7.76506 2.7346 6.02678 0.996338 3.88252 0.996338C1.73826 0.996338 0 2.7346 0 4.87886C0 7.02312 1.73826 8.76139 3.88252 8.76139Z" fill="white"/>
</svg>
