<svg xmlns="http://www.w3.org/2000/svg" width="32" height="20" viewBox="0 0 32 20"><g transform="translate(915 131)"><path d="M12.914,15.272s3.027-.23,3.027-3.852-2.053-5.4-5.191-5.4L0,6V26H11s5.5.174,5.5-6c0,0,.4-4.728-3.586-4.728ZM4,9H9.5s1.882.031,1.882,2.471C11.382,14,9.5,14,9.5,14H4Zm6,14H4V17h6a2.964,2.964,0,0,1,3,3A2.778,2.778,0,0,1,10,23ZM25,11c-7.513,0-7.5,7.5-7.5,7.5S17,26,25,26c0,0,7,0,7-6H28a2.938,2.938,0,0,1-3,3s-3,0-3-4H32C32,17,32,11,25,11Zm-3,6a3,3,0,0,1,6,0ZM21,8h8v2H21Z" transform="translate(-915 -137)" fill="#fff"/></g></svg>