<svg xmlns="http://www.w3.org/2000/svg" width="32" height="32" viewBox="0 0 32 32"><g transform="translate(-3.4 -4.8)"><path d="M24,16.7a8.6,8.6,0,1,0,8.6,8.6A8.618,8.618,0,0,0,24,16.7Zm0,14.112A5.511,5.511,0,1,1,29.512,25.3,5.535,5.535,0,0,1,24,30.812Z" transform="translate(-4.602 -4.564)" fill="#fff"/><circle cx="1.788" cy="1.788" r="1.788" transform="translate(26.243 10.446)" fill="#fff"/><path d="M32.819,7.445A9.188,9.188,0,0,0,26.045,4.8H12.755C7.142,4.8,3.4,8.542,3.4,14.155V27.381a9.283,9.283,0,0,0,2.71,6.9,9.415,9.415,0,0,0,6.71,2.516H25.981a9.526,9.526,0,0,0,6.774-2.516A9.236,9.236,0,0,0,35.4,27.445V14.155A9.249,9.249,0,0,0,32.819,7.445Zm-.258,20a6.3,6.3,0,0,1-1.871,4.71,6.669,6.669,0,0,1-4.71,1.677H12.819a6.669,6.669,0,0,1-4.71-1.677,6.485,6.485,0,0,1-1.742-4.774V14.155A6.432,6.432,0,0,1,8.11,9.445a6.561,6.561,0,0,1,4.71-1.677H26.11a6.432,6.432,0,0,1,4.71,1.742,6.657,6.657,0,0,1,1.742,4.645Z" fill="#fff"/></g></svg>